<svg width="26" height="26" viewBox="0 0 26 26" fill="none" xmlns="http://www.w3.org/2000/svg">
<path fill-rule="evenodd" clip-rule="evenodd" d="M11.7691 0.458313H14.2308C15.8256 0.458313 17.1124 0.458313 18.1239 0.594813C19.1739 0.734813 20.0583 1.03815 20.7606 1.73931C21.1083 2.08815 21.3579 2.48131 21.5388 2.91765C22.6261 3.05298 23.5396 3.35165 24.2606 4.07265C24.9629 4.77498 25.2639 5.65931 25.4063 6.70931C25.5416 7.72081 25.5416 9.00765 25.5416 10.6025V15.3975C25.5416 16.9923 25.5416 18.2791 25.4063 19.2906C25.2639 20.3406 24.9629 21.225 24.2606 21.9273C23.5396 22.6483 22.6273 22.947 21.5388 23.0835C21.3579 23.5186 21.1083 23.9118 20.7606 24.2606C20.0583 24.963 19.1739 25.264 18.1239 25.4063C17.1124 25.5416 15.8256 25.5416 14.2308 25.5416H11.7691C10.1743 25.5416 8.88742 25.5416 7.87592 25.4063C6.82592 25.264 5.94159 24.963 5.23925 24.2606C4.90403 23.924 4.63946 23.5238 4.46109 23.0835C3.37375 22.947 2.46025 22.6483 1.73925 21.9273C1.03692 21.225 0.735919 20.3406 0.594752 19.2906C0.458252 18.2791 0.458252 16.9923 0.458252 15.3975V10.6025C0.458252 9.00765 0.458252 7.72081 0.594752 6.70931C0.734752 5.65931 1.03809 4.77498 1.73925 4.07265C2.46025 3.35165 3.37259 3.05298 4.46109 2.91765C4.63971 2.47712 4.90424 2.07656 5.23925 1.73931C5.94159 1.03698 6.82592 0.73598 7.87592 0.594813C8.88742 0.458313 10.1743 0.458313 11.7691 0.458313ZM4.04925 4.76331C3.53942 4.88698 3.22092 5.06665 2.97709 5.31165C2.65392 5.63365 2.44392 6.08631 2.32842 6.94265C2.21059 7.82465 2.20825 8.99248 2.20825 10.6666V15.3333C2.20825 17.0075 2.21059 18.1765 2.32842 19.0573C2.44392 19.9136 2.65509 20.3663 2.97709 20.6895C3.22092 20.9333 3.53942 21.113 4.05042 21.2366C3.95825 20.2893 3.95825 19.1296 3.95825 17.7308V8.26915C3.95825 6.87148 3.95825 5.71065 4.04925 4.76331ZM21.9506 21.2366C22.4604 21.113 22.7789 20.9333 23.0228 20.6895C23.3459 20.3663 23.5559 19.9136 23.6714 19.0561C23.7893 18.1765 23.7916 17.0086 23.7916 15.3345V10.6678C23.7916 8.99248 23.7893 7.82465 23.6714 6.94265C23.5559 6.08631 23.3448 5.63365 23.0228 5.31048C22.7789 5.06665 22.4604 4.88698 21.9494 4.76331C22.0416 5.71065 22.0416 6.87148 22.0416 8.26915V17.7308C22.0416 19.1285 22.0416 20.2893 21.9506 21.2366ZM8.10925 2.32848C7.25292 2.44398 6.80025 2.65515 6.47709 2.97715C6.15392 3.30031 5.94392 3.75298 5.82842 4.61048C5.71059 5.48898 5.70825 6.65798 5.70825 8.33331V17.6666C5.70825 19.3408 5.71059 20.5086 5.82842 21.3906C5.94392 22.247 6.15509 22.6996 6.47709 23.0228C6.80025 23.346 7.25292 23.556 8.11042 23.6715C8.99009 23.7893 10.1591 23.7916 11.8333 23.7916H14.1666C15.8408 23.7916 17.0098 23.7893 17.8906 23.6715C18.7469 23.556 19.1996 23.3448 19.5228 23.0228C19.8459 22.6996 20.0559 22.247 20.1714 21.3895C20.2893 20.5086 20.2916 19.3408 20.2916 17.6666V8.33331C20.2916 6.65915 20.2893 5.49015 20.1714 4.60931C20.0559 3.75298 19.8448 3.30031 19.5228 2.97715C19.1996 2.65398 18.7469 2.44398 17.8894 2.32848C17.0098 2.21065 15.8408 2.20831 14.1666 2.20831H11.8333C10.1591 2.20831 8.99009 2.21065 8.10925 2.32848ZM8.62492 9.49998C8.62492 9.26792 8.71711 9.04536 8.8812 8.88126C9.0453 8.71717 9.26785 8.62498 9.49992 8.62498H16.4999C16.732 8.62498 16.9545 8.71717 17.1186 8.88126C17.2827 9.04536 17.3749 9.26792 17.3749 9.49998C17.3749 9.73205 17.2827 9.9546 17.1186 10.1187C16.9545 10.2828 16.732 10.375 16.4999 10.375H9.49992C9.26785 10.375 9.0453 10.2828 8.8812 10.1187C8.71711 9.9546 8.62492 9.73205 8.62492 9.49998ZM8.62492 14.1666C8.62492 13.9346 8.71711 13.712 8.8812 13.5479C9.0453 13.3838 9.26785 13.2916 9.49992 13.2916H16.4999C16.732 13.2916 16.9545 13.3838 17.1186 13.5479C17.2827 13.712 17.3749 13.9346 17.3749 14.1666C17.3749 14.3987 17.2827 14.6213 17.1186 14.7854C16.9545 14.9495 16.732 15.0416 16.4999 15.0416H9.49992C9.26785 15.0416 9.0453 14.9495 8.8812 14.7854C8.71711 14.6213 8.62492 14.3987 8.62492 14.1666ZM8.62492 18.8333C8.62492 18.6012 8.71711 18.3787 8.8812 18.2146C9.0453 18.0505 9.26785 17.9583 9.49992 17.9583H12.9999C13.232 17.9583 13.4545 18.0505 13.6186 18.2146C13.7827 18.3787 13.8749 18.6012 13.8749 18.8333C13.8749 19.0654 13.7827 19.2879 13.6186 19.452C13.4545 19.6161 13.232 19.7083 12.9999 19.7083H9.49992C9.26785 19.7083 9.0453 19.6161 8.8812 19.452C8.71711 19.2879 8.62492 19.0654 8.62492 18.8333Z" fill="#D6A12B"/>
</svg>
