<svg width="40" height="41" viewBox="0 0 40 41" fill="none" xmlns="http://www.w3.org/2000/svg">
<circle cx="20" cy="20.5" r="19.4375" fill="#EFF6FF" stroke="white" stroke-width="1.125"/>
<path d="M20.0001 19.6667C21.841 19.6667 23.3334 18.1743 23.3334 16.3333C23.3334 14.4924 21.841 13 20.0001 13C18.1591 13 16.6667 14.4924 16.6667 16.3333C16.6667 18.1743 18.1591 19.6667 20.0001 19.6667Z" stroke="#64748B" stroke-width="1.4" stroke-linecap="round" stroke-linejoin="round"/>
<path d="M15 28V26.3333C15 25.4493 15.3512 24.6014 15.9763 23.9763C16.6014 23.3512 17.4493 23 18.3333 23H21.6667C22.5507 23 23.3986 23.3512 24.0237 23.9763C24.6488 24.6014 25 25.4493 25 26.3333V28" stroke="#64748B" stroke-width="1.4" stroke-linecap="round" stroke-linejoin="round"/>
</svg>
