<svg width="22" height="22" viewBox="0 0 22 22" fill="none" xmlns="http://www.w3.org/2000/svg">
<path d="M13.75 16.1562C13.6825 17.8538 12.2678 19.2953 10.3726 19.2489C9.93172 19.2382 9.38676 19.0844 8.29686 18.777C5.67381 18.0372 3.39675 16.7937 2.85043 14.0081C2.75 13.4961 2.75 12.9199 2.75 11.7675V10.2325C2.75 9.08014 2.75 8.50395 2.85043 7.99191C3.39675 5.20632 5.67381 3.96287 8.29686 3.22299C9.38676 2.91556 9.93172 2.76185 10.3726 2.75106C12.2678 2.70469 13.6825 4.14612 13.75 5.84374" stroke="#141B34" stroke-width="1.5" stroke-linecap="round"/>
<path d="M9.16663 11H19.25M9.16663 11C9.16663 10.3581 10.9947 9.1589 11.4583 8.70833M9.16663 11C9.16663 11.6418 10.9947 12.8411 11.4583 13.2917" stroke="#141B34" stroke-width="1.5" stroke-linecap="round" stroke-linejoin="round"/>
</svg>
